<svg xmlns="http://www.w3.org/2000/svg" viewBox="0 0 56.66 69.42"><defs><style>.cls-1{fill:#462a78;}.cls-2{fill:#fff;}</style></defs><g id="Layer_2" data-name="Layer 2"><g id="Layer_1-2" data-name="Layer 1"><path class="cls-1" d="M42,1.26,1.21,55,0,67.07a2.5,2.5,0,0,0,2.88,2.29l12.34-3.69L56.05,11.9c1.38-1.82.33-4.93-2.34-7l-4.34-3.3C46.7-.39,43.41-.56,42,1.26Z"/><path class="cls-2" d="M13.07,63.8,5.16,66.26,2.48,63.37l1-7.34a12.55,12.55,0,0,1,5.84,2.61A12.6,12.6,0,0,1,13.07,63.8Z"/><rect class="cls-2" x="38.18" y="0.17" width="5.36" height="27.32" transform="translate(5.14 38.01) rotate(-52.79)"/></g></g></svg>