<svg xmlns="http://www.w3.org/2000/svg" viewBox="0 0 63.51 62.18"><defs><style>.cls-1{fill:#462a78;}.cls-2{fill:#fff;}</style></defs><g id="Layer_2" data-name="Layer 2"><g id="Layer_1-2" data-name="Layer 1"><path class="cls-1" d="M56.44,15.55,34.88.9a5.22,5.22,0,0,0-7.25,1.39L.9,41.63a5.22,5.22,0,0,0,1.39,7.25l12.27,8.33H25.73L6,43.78,18,26,39.44,40.59,28.15,57.21h6.29L57.82,22.8A5.22,5.22,0,0,0,56.44,15.55Z"/><polygon class="cls-2" points="39.44 40.59 18.02 26.04 5.96 43.78 25.73 57.21 28.15 57.21 39.44 40.59"/><path class="cls-1" d="M61,62.18H22.35l-7.84-5H61a2.5,2.5,0,0,1,2.5,2.5h0A2.5,2.5,0,0,1,61,62.18Z"/></g></g></svg>